<?xml version="1.0" standalone="no"?>
<!DOCTYPE svg PUBLIC "-//W3C//DTD SVG 20010904//EN"
 "http://www.w3.org/TR/2001/REC-SVG-20010904/DTD/svg10.dtd">
<svg version="1.0" xmlns="http://www.w3.org/2000/svg"
 width="160.000000pt" height="160.000000pt" viewBox="0 0 160.000000 160.000000"
 preserveAspectRatio="xMidYMid meet">
<metadata>
Created by potrace 1.11, written by Peter Selinger 2001-2013
</metadata>
<g transform="translate(0.000000,160.000000) scale(0.100000,-0.100000)"
fill="#000000" stroke="none">
<path d="M755 1518 c-11 -6 -26 -19 -32 -27 -23 -30 -143 -231 -143 -240 0 -5
-4 -11 -8 -13 -10 -4 -104 -196 -140 -288 -32 -82 -66 -188 -76 -235 -4 -16
-9 -41 -12 -55 -12 -57 -11 -157 3 -213 12 -53 60 -160 88 -195 149 -189 398
-239 597 -119 31 19 72 52 90 73 18 20 38 43 44 49 19 19 71 127 84 175 31
116 12 258 -61 460 -67 182 -256 538 -327 613 -28 29 -71 35 -107 15z"/>
</g>
</svg>
